{
	"asset":{
		"generator":"Khronos glTF Blender I/O v4.2.70",
		"version":"2.0"
	},
	"scene":0,
	"scenes":[
		{
			"name":"Scene",
			"nodes":[
				7
			]
		}
	],
	"nodes":[
		{
			"mesh":0,
			"name":"Object_2"
		},
		{
			"mesh":1,
			"name":"Object_3"
		},
		{
			"mesh":2,
			"name":"Object_4"
		},
		{
			"mesh":3,
			"name":"Object_5"
		},
		{
			"mesh":4,
			"name":"Object_6"
		},
		{
			"mesh":5,
			"name":"Object_7"
		},
		{
			"children":[
				0,
				1,
				2,
				3,
				4,
				5
			],
			"name":"island.obj.cleaner.materialmerger.gles"
		},
		{
			"children":[
				6
			],
			"name":"Sketchfab_model",
			"rotation":[
				-0.70710688829422,
				0,
				0,
				0.7071066498756409
			],
			"scale":[
				0.002854442223906517,
				0.0028544424567371607,
				0.0028544424567371607
			]
		}
	],
	"materials":[
		{
			"doubleSided":true,
			"name":"sand_mat",
			"normalTexture":{
				"index":0
			},
			"pbrMetallicRoughness":{
				"baseColorTexture":{
					"index":1
				},
				"metallicFactor":0,
				"metallicRoughnessTexture":{
					"index":2
				}
			}
		},
		{
			"doubleSided":true,
			"name":"wood_mat",
			"normalTexture":{
				"index":3
			},
			"pbrMetallicRoughness":{
				"baseColorTexture":{
					"index":4
				},
				"metallicFactor":0,
				"metallicRoughnessTexture":{
					"index":5
				}
			}
		},
		{
			"doubleSided":true,
			"name":"leaves_mat",
			"normalTexture":{
				"index":6
			},
			"pbrMetallicRoughness":{
				"baseColorTexture":{
					"index":7
				},
				"metallicFactor":0,
				"metallicRoughnessTexture":{
					"index":8
				}
			}
		}
	],
	"meshes":[
		{
			"name":"Object_0",
			"primitives":[
				{
					"attributes":{
						"POSITION":0,
						"NORMAL":1,
						"TEXCOORD_0":2
					},
					"indices":3,
					"material":0
				}
			]
		},
		{
			"name":"Object_1",
			"primitives":[
				{
					"attributes":{
						"POSITION":4,
						"NORMAL":5,
						"TEXCOORD_0":6
					},
					"indices":7,
					"material":1
				}
			]
		},
		{
			"name":"Object_2",
			"primitives":[
				{
					"attributes":{
						"POSITION":8,
						"NORMAL":9,
						"TEXCOORD_0":10
					},
					"indices":11,
					"material":2
				}
			]
		},
		{
			"name":"Object_3",
			"primitives":[
				{
					"attributes":{
						"POSITION":12,
						"NORMAL":13,
						"TEXCOORD_0":14
					},
					"indices":15,
					"material":2
				}
			]
		},
		{
			"name":"Object_4",
			"primitives":[
				{
					"attributes":{
						"POSITION":16,
						"NORMAL":17,
						"TEXCOORD_0":18
					},
					"indices":19,
					"material":2
				}
			]
		},
		{
			"name":"Object_5",
			"primitives":[
				{
					"attributes":{
						"POSITION":20,
						"NORMAL":21,
						"TEXCOORD_0":22
					},
					"indices":23,
					"material":2
				}
			]
		}
	],
	"textures":[
		{
			"sampler":0,
			"source":0
		},
		{
			"sampler":0,
			"source":1
		},
		{
			"sampler":0,
			"source":2
		},
		{
			"sampler":0,
			"source":3
		},
		{
			"sampler":0,
			"source":4
		},
		{
			"sampler":0,
			"source":5
		},
		{
			"sampler":0,
			"source":6
		},
		{
			"sampler":0,
			"source":7
		},
		{
			"sampler":0,
			"source":8
		}
	],
	"images":[
		{
			"mimeType":"image/png",
			"name":"sand_mat_normal",
			"uri":"sand_mat_normal.png"
		},
		{
			"mimeType":"image/png",
			"name":"sand_mat_baseColor",
			"uri":"sand_mat_baseColor.png"
		},
		{
			"mimeType":"image/png",
			"name":"sand_mat_metallicRoughness",
			"uri":"sand_mat_metallicRoughness.png"
		},
		{
			"mimeType":"image/png",
			"name":"wood_mat_normal",
			"uri":"wood_mat_normal.png"
		},
		{
			"mimeType":"image/png",
			"name":"wood_mat_baseColor",
			"uri":"wood_mat_baseColor.png"
		},
		{
			"mimeType":"image/png",
			"name":"wood_mat_metallicRoughness",
			"uri":"wood_mat_metallicRoughness.png"
		},
		{
			"mimeType":"image/png",
			"name":"leaves_mat_normal",
			"uri":"leaves_mat_normal.png"
		},
		{
			"mimeType":"image/png",
			"name":"leaves_mat_baseColor",
			"uri":"leaves_mat_baseColor.png"
		},
		{
			"mimeType":"image/png",
			"name":"leaves_mat_metallicRoughness",
			"uri":"leaves_mat_metallicRoughness.png"
		}
	],
	"accessors":[
		{
			"bufferView":0,
			"componentType":5126,
			"count":377,
			"max":[
				633.9278564453125,
				739.8287963867188,
				219.594970703125
			],
			"min":[
				-633.92724609375,
				-739.8287353515625,
				0.4809570014476776
			],
			"type":"VEC3"
		},
		{
			"bufferView":1,
			"componentType":5126,
			"count":377,
			"type":"VEC3"
		},
		{
			"bufferView":2,
			"componentType":5126,
			"count":377,
			"type":"VEC2"
		},
		{
			"bufferView":3,
			"componentType":5123,
			"count":2088,
			"type":"SCALAR"
		},
		{
			"bufferView":4,
			"componentType":5126,
			"count":5425,
			"max":[
				624.0679321289062,
				309.9020080566406,
				1779.1279296875
			],
			"min":[
				-343.30517578125,
				-538.6367797851562,
				126.8326416015625
			],
			"type":"VEC3"
		},
		{
			"bufferView":5,
			"componentType":5126,
			"count":5425,
			"type":"VEC3"
		},
		{
			"bufferView":6,
			"componentType":5126,
			"count":5425,
			"type":"VEC2"
		},
		{
			"bufferView":7,
			"componentType":5123,
			"count":16188,
			"type":"SCALAR"
		},
		{
			"bufferView":8,
			"componentType":5126,
			"count":66841,
			"max":[
				1141.43603515625,
				783.5833129882812,
				2154.95947265625
			],
			"min":[
				-716.197021484375,
				-969.5134887695312,
				1136.337158203125
			],
			"type":"VEC3"
		},
		{
			"bufferView":9,
			"componentType":5126,
			"count":66841,
			"type":"VEC3"
		},
		{
			"bufferView":10,
			"componentType":5126,
			"count":66841,
			"type":"VEC2"
		},
		{
			"bufferView":11,
			"componentType":5125,
			"count":183051,
			"type":"SCALAR"
		},
		{
			"bufferView":12,
			"componentType":5126,
			"count":16068,
			"max":[
				87.99880981445312,
				834.5060424804688,
				2153.81298828125
			],
			"min":[
				-792.4305419921875,
				-76.20735931396484,
				1559.475830078125
			],
			"type":"VEC3"
		},
		{
			"bufferView":13,
			"componentType":5126,
			"count":16068,
			"type":"VEC3"
		},
		{
			"bufferView":14,
			"componentType":5126,
			"count":16068,
			"type":"VEC2"
		},
		{
			"bufferView":15,
			"componentType":5123,
			"count":41733,
			"type":"SCALAR"
		},
		{
			"bufferView":16,
			"componentType":5126,
			"count":63648,
			"max":[
				1141.43603515625,
				834.5060424804688,
				2154.95947265625
			],
			"min":[
				-792.4305419921875,
				-969.5134887695312,
				1136.337158203125
			],
			"type":"VEC3"
		},
		{
			"bufferView":17,
			"componentType":5126,
			"count":63648,
			"type":"VEC3"
		},
		{
			"bufferView":18,
			"componentType":5126,
			"count":63648,
			"type":"VEC2"
		},
		{
			"bufferView":19,
			"componentType":5123,
			"count":158976,
			"type":"SCALAR"
		},
		{
			"bufferView":20,
			"componentType":5126,
			"count":20062,
			"max":[
				1141.43603515625,
				834.5060424804688,
				2154.95947265625
			],
			"min":[
				-792.4305419921875,
				-969.5134887695312,
				1136.337158203125
			],
			"type":"VEC3"
		},
		{
			"bufferView":21,
			"componentType":5126,
			"count":20062,
			"type":"VEC3"
		},
		{
			"bufferView":22,
			"componentType":5126,
			"count":20062,
			"type":"VEC2"
		},
		{
			"bufferView":23,
			"componentType":5123,
			"count":38160,
			"type":"SCALAR"
		}
	],
	"bufferViews":[
		{
			"buffer":0,
			"byteLength":4524,
			"byteOffset":0,
			"target":34962
		},
		{
			"buffer":0,
			"byteLength":4524,
			"byteOffset":4524,
			"target":34962
		},
		{
			"buffer":0,
			"byteLength":3016,
			"byteOffset":9048,
			"target":34962
		},
		{
			"buffer":0,
			"byteLength":4176,
			"byteOffset":12064,
			"target":34963
		},
		{
			"buffer":0,
			"byteLength":65100,
			"byteOffset":16240,
			"target":34962
		},
		{
			"buffer":0,
			"byteLength":65100,
			"byteOffset":81340,
			"target":34962
		},
		{
			"buffer":0,
			"byteLength":43400,
			"byteOffset":146440,
			"target":34962
		},
		{
			"buffer":0,
			"byteLength":32376,
			"byteOffset":189840,
			"target":34963
		},
		{
			"buffer":0,
			"byteLength":802092,
			"byteOffset":222216,
			"target":34962
		},
		{
			"buffer":0,
			"byteLength":802092,
			"byteOffset":1024308,
			"target":34962
		},
		{
			"buffer":0,
			"byteLength":534728,
			"byteOffset":1826400,
			"target":34962
		},
		{
			"buffer":0,
			"byteLength":732204,
			"byteOffset":2361128,
			"target":34963
		},
		{
			"buffer":0,
			"byteLength":192816,
			"byteOffset":3093332,
			"target":34962
		},
		{
			"buffer":0,
			"byteLength":192816,
			"byteOffset":3286148,
			"target":34962
		},
		{
			"buffer":0,
			"byteLength":128544,
			"byteOffset":3478964,
			"target":34962
		},
		{
			"buffer":0,
			"byteLength":83466,
			"byteOffset":3607508,
			"target":34963
		},
		{
			"buffer":0,
			"byteLength":763776,
			"byteOffset":3690976,
			"target":34962
		},
		{
			"buffer":0,
			"byteLength":763776,
			"byteOffset":4454752,
			"target":34962
		},
		{
			"buffer":0,
			"byteLength":509184,
			"byteOffset":5218528,
			"target":34962
		},
		{
			"buffer":0,
			"byteLength":317952,
			"byteOffset":5727712,
			"target":34963
		},
		{
			"buffer":0,
			"byteLength":240744,
			"byteOffset":6045664,
			"target":34962
		},
		{
			"buffer":0,
			"byteLength":240744,
			"byteOffset":6286408,
			"target":34962
		},
		{
			"buffer":0,
			"byteLength":160496,
			"byteOffset":6527152,
			"target":34962
		},
		{
			"buffer":0,
			"byteLength":76320,
			"byteOffset":6687648,
			"target":34963
		}
	],
	"samplers":[
		{
			"magFilter":9729,
			"minFilter":9987
		}
	],
	"buffers":[
		{
			"byteLength":6763968,
			"uri":"palmeras.bin"
		}
	]
}
