{
	"asset":{
		"generator":"Khronos glTF Blender I/O v4.2.70",
		"version":"2.0"
	},
	"scene":0,
	"scenes":[
		{
			"name":"Scene",
			"nodes":[
				5
			]
		}
	],
	"nodes":[
		{
			"mesh":0,
			"name":"Stair_Stair_white_0"
		},
		{
			"mesh":1,
			"name":"Stair_Stair_wood_0"
		},
		{
			"children":[
				0,
				1
			],
			"name":"Stair",
			"rotation":[
				-0.70710688829422,
				0,
				0,
				0.7071066498756409
			],
			"scale":[
				100,
				100,
				100
			]
		},
		{
			"children":[
				2
			],
			"name":"RootNode"
		},
		{
			"children":[
				3
			],
			"name":"2dbff7e9c1414e1284af74458722d4e7.fbx",
			"rotation":[
				0.70710688829422,
				0,
				0,
				0.7071066498756409
			]
		},
		{
			"children":[
				4
			],
			"name":"Sketchfab_model",
			"rotation":[
				-0.70710688829422,
				0,
				0,
				0.7071066498756409
			],
			"scale":[
				0.09002608060836792,
				0.09002608805894852,
				0.09002608805894852
			]
		}
	],
	"materials":[
		{
			"doubleSided":true,
			"name":"Stair_white",
			"pbrMetallicRoughness":{
				"baseColorFactor":[
					0.800000011920929,
					0.800000011920929,
					0.800000011920929,
					1
				],
				"metallicFactor":0,
				"roughnessFactor":0.823941707611084
			}
		},
		{
			"doubleSided":true,
			"name":"Stair_wood",
			"pbrMetallicRoughness":{
				"baseColorFactor":[
					0.800000011920929,
					0.800000011920929,
					0.800000011920929,
					1
				],
				"metallicFactor":0,
				"roughnessFactor":0.823941707611084
			}
		}
	],
	"meshes":[
		{
			"name":"Stair_Stair_white_0",
			"primitives":[
				{
					"attributes":{
						"POSITION":0,
						"NORMAL":1,
						"TEXCOORD_0":2
					},
					"indices":3,
					"material":0
				}
			]
		},
		{
			"name":"Stair_Stair_wood_0",
			"primitives":[
				{
					"attributes":{
						"POSITION":4,
						"NORMAL":5,
						"TEXCOORD_0":6
					},
					"indices":7,
					"material":1
				}
			]
		}
	],
	"accessors":[
		{
			"bufferView":0,
			"componentType":5126,
			"count":1204,
			"max":[
				0.75,
				1.75,
				2.700000047683716
			],
			"min":[
				-2.75,
				-1.75,
				0
			],
			"type":"VEC3"
		},
		{
			"bufferView":1,
			"componentType":5126,
			"count":1204,
			"type":"VEC3"
		},
		{
			"bufferView":2,
			"componentType":5126,
			"count":1204,
			"type":"VEC2"
		},
		{
			"bufferView":3,
			"componentType":5123,
			"count":2520,
			"type":"SCALAR"
		},
		{
			"bufferView":4,
			"componentType":5126,
			"count":1906,
			"max":[
				0.75,
				1.75,
				3.7829718589782715
			],
			"min":[
				-2.75,
				-1.75,
				0.10500000417232513
			],
			"type":"VEC3"
		},
		{
			"bufferView":5,
			"componentType":5126,
			"count":1906,
			"type":"VEC3"
		},
		{
			"bufferView":6,
			"componentType":5126,
			"count":1906,
			"type":"VEC2"
		},
		{
			"bufferView":7,
			"componentType":5123,
			"count":4560,
			"type":"SCALAR"
		}
	],
	"bufferViews":[
		{
			"buffer":0,
			"byteLength":14448,
			"byteOffset":0,
			"target":34962
		},
		{
			"buffer":0,
			"byteLength":14448,
			"byteOffset":14448,
			"target":34962
		},
		{
			"buffer":0,
			"byteLength":9632,
			"byteOffset":28896,
			"target":34962
		},
		{
			"buffer":0,
			"byteLength":5040,
			"byteOffset":38528,
			"target":34963
		},
		{
			"buffer":0,
			"byteLength":22872,
			"byteOffset":43568,
			"target":34962
		},
		{
			"buffer":0,
			"byteLength":22872,
			"byteOffset":66440,
			"target":34962
		},
		{
			"buffer":0,
			"byteLength":15248,
			"byteOffset":89312,
			"target":34962
		},
		{
			"buffer":0,
			"byteLength":9120,
			"byteOffset":104560,
			"target":34963
		}
	],
	"buffers":[
		{
			"byteLength":113680,
			"uri":"stairs.bin"
		}
	]
}
